<svg width="390" height="844" viewBox="0 0 390 844" fill="none" xmlns="http://www.w3.org/2000/svg">
<rect width="390" height="844" fill="#F5F5F5"/>
<rect width="390" height="844" fill="white"/>
<path d="M192.08 310.25C192.198 309.451 192.515 308.695 193 308.05L189.43 304.49C188.018 306.096 187.165 308.118 187 310.25H192.08ZM194.05 307C194.696 306.518 195.452 306.205 196.25 306.09V301C194.118 301.165 192.096 302.018 190.49 303.43L194.05 307ZM197.75 301V306C198.574 306.134 199.349 306.478 200 307L203.56 303.44C201.942 302.014 199.901 301.157 197.75 301ZM193 314C192.518 313.354 192.205 312.598 192.09 311.8H187C187.154 313.928 187.992 315.948 189.39 317.56L193 314ZM196.25 315.92C195.451 315.802 194.695 315.485 194.05 315L190.49 318.57C192.096 319.982 194.118 320.835 196.25 321V315.92ZM201 308.05C201.482 308.696 201.795 309.452 201.91 310.25H206.91C206.756 308.122 205.918 306.102 204.52 304.49L201 308.05ZM200 315C199.354 315.482 198.598 315.795 197.8 315.91V320.91C199.928 320.756 201.948 319.918 203.56 318.52L200 315ZM201.92 311.75C201.81 312.566 201.493 313.34 201 314L204.56 317.56C205.986 315.942 206.843 313.901 207 311.75H201.92Z" fill="#E86E17"/>
</svg>
